<svg width="33" height="26" viewBox="0 0 33 26" fill="none" xmlns="http://www.w3.org/2000/svg">
<path fill-rule="evenodd" clip-rule="evenodd" d="M31.2674 14.6817C30.8467 13.8521 29.5631 13.5889 27.856 13.8721L27.7902 13.8921C27.6571 13.9121 27.5254 13.9322 27.3909 13.9536C27.3909 14.0337 27.3694 14.1153 27.3694 14.1754C27.3451 14.3771 27.3237 14.5788 27.2807 14.7819C27.4138 14.8234 27.5254 14.842 27.6571 14.882H27.6356C28.1651 15.0437 28.5428 15.3269 28.7203 15.7317C29.4959 17.5327 26.1503 21.0317 21.2091 23.5593C19.1929 24.5893 17.2439 25.2988 15.5825 25.6622C17.4886 25.9254 20.8557 24.914 24.2886 22.8927C29.0508 20.1004 32.1761 16.4198 31.2674 14.6817Z" fill="url(#paint0_linear_102_163)"/>
<path fill-rule="evenodd" clip-rule="evenodd" d="M23.7562 4.97302C23.7791 4.97302 23.7791 4.97302 23.7791 4.97302H23.7562ZM23.7562 4.97302H23.7791C25.0656 6.14602 26.0601 7.5622 26.6812 9.12C26.239 10.293 25.2201 11.6262 23.7577 12.9423V4.97302C23.7806 4.97302 23.7806 4.97302 23.7806 4.97302H23.7562H23.7791H23.7562ZM23.7562 21.0517V16.683C25.1071 15.8733 26.3048 15.025 27.368 14.1753C27.0589 16.8847 25.7281 19.2722 23.7562 21.0517ZM26.8801 9.64499C26.8801 9.68504 26.903 9.72653 26.9244 9.78518C26.903 9.72653 26.8801 9.68504 26.8801 9.64499ZM16.3352 1.73726C18.3958 1.94039 20.279 2.58697 21.896 3.5783C21.896 3.67986 21.8745 3.75997 21.8531 3.86153C19.771 4.26636 17.51 4.91437 15.2062 5.82273C17.3999 5.15612 19.5048 4.77132 21.2764 4.69122C21.3422 4.69122 21.4095 4.69122 21.4982 4.69122C21.6541 4.40798 21.7858 4.12474 21.8531 3.86153C19.771 4.26636 17.51 4.91437 15.2062 5.82273C17.3999 5.15612 19.5048 4.77132 21.2764 4.69122C21.3422 4.69122 21.4095 4.69122 21.4982 4.69122C20.4564 6.49077 17.6446 8.71517 14.0542 10.4146C11.9951 11.3859 10.0232 12.0325 8.33894 12.3357C8.76108 12.4173 9.24904 12.4173 9.80139 12.3772C9.3349 12.4988 8.87126 12.5989 8.44912 12.6805C10.3766 13.0038 13.7666 12.094 17.2453 10.1929C20.1931 8.59358 22.5628 6.65241 23.7591 4.97302V12.9423C22.0534 14.5001 19.7052 16.0364 16.9591 17.3911C12.971 19.3337 8.93995 20.4237 5.81613 20.5667C3.55519 18.2608 2.33744 15.1466 2.71378 11.8308C3.41925 5.59957 9.51234 1.09068 16.3352 1.73726ZM23.7562 4.97302V4.95299V4.97302V4.95299H23.7348V4.93297H23.7119V4.91294H23.689V4.89291H23.6675V4.87146L23.6003 4.80995H23.5788L23.5344 4.76846H23.5573C23.5788 4.80995 23.6232 4.82997 23.669 4.87003L23.6017 4.80852H23.5802L23.5359 4.76703C22.2967 6.42496 19.9928 8.30605 17.1337 9.86385C14.4106 11.3401 11.7504 12.2098 9.80139 12.3715C9.3349 12.4931 8.87126 12.5932 8.44912 12.6748C10.3766 12.998 13.7666 12.0883 17.2453 10.1871C20.1917 8.59358 22.5614 6.65241 23.7562 4.97302ZM23.7562 16.683C22.6716 17.3496 21.5196 17.9976 20.2776 18.5841C15.9574 20.7069 11.5701 21.9801 7.98263 22.3248C9.64399 23.3762 11.6144 24.0643 13.7652 24.2674C17.5973 24.6293 21.2077 23.3562 23.7562 21.0517V16.683V16.683ZM7.84955 22.2232C7.80662 22.2032 7.76083 22.1617 7.71647 22.1417C7.76226 22.1632 7.80662 22.2032 7.84955 22.2232ZM7.18557 21.7598C7.11975 21.7197 7.05249 21.6782 6.98667 21.6182C7.05249 21.6782 7.11975 21.7197 7.18557 21.7598ZM7.62918 22.0831C7.58482 22.0416 7.51899 22.0201 7.47463 21.9801C7.51899 22.0215 7.58482 22.0416 7.62918 22.0831Z" fill="url(#paint1_radial_102_163)"/>
<path fill-rule="evenodd" clip-rule="evenodd" d="M26.5495 8.79675C26.5925 8.89689 26.6368 9.01848 26.6812 9.12004C26.2161 10.3546 25.13 11.7292 23.5803 13.1039V12.6805C25.0656 11.3244 26.1059 9.98978 26.5495 8.79675ZM23.5803 4.81142V4.79139V4.81142H23.6017L23.5803 4.79139V4.81142H23.6017H23.5803ZM26.8801 9.64503C26.8801 9.68508 26.903 9.72657 26.9244 9.78522C26.903 9.72657 26.8801 9.68508 26.8801 9.64503ZM23.5803 13.1025C21.8745 14.5988 19.615 16.0965 16.9577 17.3897C12.9696 19.3323 8.93853 20.4223 5.81471 20.5654C5.72599 20.4638 5.63727 20.3823 5.54855 20.2821C8.67237 20.1605 12.7707 19.0691 16.7817 17.1079C19.5506 15.7718 21.8559 14.2154 23.5817 12.6791V13.1025H23.5803ZM23.5803 4.79139L23.5359 4.77137L23.5803 4.79139ZM23.5803 4.79139L23.5359 4.77137V4.79139L23.5803 4.81142V4.79139ZM7.18559 21.7598C7.11976 21.7198 7.05251 21.6783 6.98668 21.6182C7.05251 21.6783 7.11976 21.7198 7.18559 21.7598ZM7.58483 22.0616C7.56336 22.0416 7.519 22.0001 7.47464 21.9801L7.58483 22.0616Z" fill="url(#paint2_radial_102_163)"/>
<path fill-rule="evenodd" clip-rule="evenodd" d="M23.4457 4.68982L23.4243 4.6698C23.3799 4.62974 23.3356 4.58826 23.2912 4.54821C23.2254 4.50672 23.1796 4.46667 23.1366 4.42804C22.7818 4.14481 22.4283 3.90163 22.0505 3.65987C22.0505 3.71995 22.0505 3.78003 22.0291 3.82152C20.1688 4.16484 18.174 4.73131 16.1149 5.47945V5.56099C17.9751 5.0546 19.7481 4.75276 21.2764 4.69125C21.4538 4.69125 21.6313 4.69125 21.7858 4.69125C21.0775 6.20757 18.9739 8.10868 16.1163 9.74659V10.778C16.5141 10.5963 16.869 10.4146 17.2453 10.1929C20.1931 8.59362 22.5628 6.65245 23.7806 4.97306C23.7133 4.91298 23.669 4.87293 23.6031 4.81141H23.5817L23.5373 4.76993L23.5159 4.75133L23.4457 4.68982ZM16.1149 20.3637V17.7945C16.4025 17.6543 16.6901 17.5327 16.9563 17.3911C22.0734 14.9035 25.7281 11.6878 26.6812 9.12004C27.3008 10.6979 27.5669 12.4159 27.3695 14.1754C25.4419 15.7317 23.0479 17.2495 20.279 18.5841C18.8838 19.2722 17.4657 19.8573 16.1149 20.3637ZM16.1149 5.47945C15.8258 5.59961 15.5153 5.70261 15.2062 5.82277C15.5153 5.74123 15.8258 5.6411 16.1149 5.56099V5.47945ZM16.1149 9.74516C15.5153 10.0899 14.8513 10.4332 14.1644 10.7579C12.1267 11.7278 10.132 12.3758 8.4477 12.6791C10.1549 12.9623 13.0354 12.2743 16.1134 10.7765V9.74516H16.1149ZM16.1149 17.7945V20.3637C13.2114 21.4365 10.421 22.0845 7.98407 22.3248C7.18701 21.8185 6.45579 21.2334 5.81328 20.5668C8.71386 20.4452 12.4144 19.4739 16.1149 17.7945Z" fill="#B37C81"/>
<path fill-rule="evenodd" clip-rule="evenodd" d="M24.31 3.4969C27.7673 3.17361 30.4704 3.71862 31.5765 5.21491C33.8146 8.269 28.6974 14.134 20.1015 18.2996C11.55 22.4666 2.77675 23.3764 0.517244 20.3223C0.0307131 19.6542 -0.102367 18.826 0.0750733 17.9162C0.139467 18.2395 0.273979 18.5241 0.472884 18.7874C2.33458 21.3351 9.66689 20.5869 16.7788 17.1094C23.9351 13.6305 28.2109 8.73677 26.3492 6.18907C25.8169 5.48098 24.8424 5.01464 23.5788 4.81294L23.5345 4.79292C23.8679 4.34518 24.134 3.90173 24.31 3.4969Z" fill="url(#paint3_linear_102_163)"/>
<path fill-rule="evenodd" clip-rule="evenodd" d="M24.3101 3.4968C24.3988 3.4968 24.509 3.4968 24.6206 3.47677C24.4646 3.9002 24.1999 4.36653 23.845 4.8715C23.7563 4.85147 23.6676 4.83144 23.5789 4.80998L23.5345 4.78996C23.8679 4.34508 24.1341 3.90163 24.3101 3.4968Z" fill="url(#paint4_linear_102_163)"/>
<path fill-rule="evenodd" clip-rule="evenodd" d="M17.5544 1.85889C20.9873 0.584324 23.7792 0.522814 24.4217 1.85889C25.2416 3.63841 21.9847 7.21748 17.1323 9.86674C13.6336 11.7679 10.2436 12.659 8.33752 12.3343C10.0218 12.0311 11.9937 11.3845 14.0528 10.4132C19.0598 8.04717 22.5385 4.64976 21.8302 2.82876C21.4309 1.81883 19.791 1.51414 17.5544 1.85889Z" fill="url(#paint5_linear_102_163)"/>
<defs>
<linearGradient id="paint0_linear_102_163" x1="26.4804" y1="12.5396" x2="20.9899" y2="27.6299" gradientUnits="userSpaceOnUse">
<stop offset="0.1619" stop-color="#860102"/>
<stop offset="0.2065" stop-color="#A90A0E"/>
<stop offset="0.2609" stop-color="#CD141A"/>
<stop offset="0.3052" stop-color="#E41A21"/>
<stop offset="0.3333" stop-color="#EC1C24"/>
<stop offset="0.3561" stop-color="#EE3523"/>
<stop offset="0.3922" stop-color="#F15621"/>
<stop offset="0.4267" stop-color="#F26E20"/>
<stop offset="0.4587" stop-color="#F47C1F"/>
<stop offset="0.4857" stop-color="#F4811F"/>
<stop offset="1" stop-color="#FFCA05"/>
</linearGradient>
<radialGradient id="paint1_radial_102_163" cx="0" cy="0" r="1" gradientUnits="userSpaceOnUse" gradientTransform="translate(10.3589 23.7479) scale(17.087 15.5976)">
<stop stop-color="white"/>
<stop offset="0.1048" stop-color="white"/>
<stop offset="0.2305" stop-color="#FBE6D8"/>
<stop offset="0.3835" stop-color="#F6CCAE"/>
<stop offset="0.504" stop-color="#F3BC95"/>
<stop offset="0.5762" stop-color="#F2B68B"/>
<stop offset="0.6476" stop-color="#F3BA91"/>
<stop offset="0.7455" stop-color="#F5C7A3"/>
<stop offset="0.8587" stop-color="#F9DCC0"/>
<stop offset="0.9827" stop-color="#FEF9E8"/>
<stop offset="1" stop-color="#FFFDEE"/>
</radialGradient>
<radialGradient id="paint2_radial_102_163" cx="0" cy="0" r="1" gradientUnits="userSpaceOnUse" gradientTransform="translate(12.5127 21.5002) scale(14.5655 13.2959)">
<stop stop-color="white"/>
<stop offset="0.1" stop-color="white"/>
<stop offset="0.67" stop-color="#D0D2D3"/>
<stop offset="1" stop-color="white"/>
</radialGradient>
<linearGradient id="paint3_linear_102_163" x1="7.60254" y1="21.8018" x2="25.2566" y2="4.74763" gradientUnits="userSpaceOnUse">
<stop offset="0.0238" stop-color="#860102"/>
<stop offset="0.1164" stop-color="#8A0203"/>
<stop offset="0.2007" stop-color="#950507"/>
<stop offset="0.2818" stop-color="#A70A0D"/>
<stop offset="0.3609" stop-color="#C11116"/>
<stop offset="0.4378" stop-color="#E21921"/>
<stop offset="0.4571" stop-color="#EC1C24"/>
<stop offset="0.5644" stop-color="#F16021"/>
<stop offset="0.6238" stop-color="#F4811F"/>
<stop offset="1" stop-color="#FFCA05"/>
</linearGradient>
<linearGradient id="paint4_linear_102_163" x1="19.4357" y1="4.91993" x2="25.6904" y2="3.92895" gradientUnits="userSpaceOnUse">
<stop stop-color="#F4811F"/>
<stop offset="1" stop-color="#FFCA05"/>
</linearGradient>
<linearGradient id="paint5_linear_102_163" x1="23.6698" y1="0.901334" x2="9.04489" y2="13.1773" gradientUnits="userSpaceOnUse">
<stop offset="0.1619" stop-color="#860102"/>
<stop offset="0.2065" stop-color="#A90A0E"/>
<stop offset="0.2609" stop-color="#CD141A"/>
<stop offset="0.3052" stop-color="#E41A21"/>
<stop offset="0.3333" stop-color="#EC1C24"/>
<stop offset="0.3561" stop-color="#EE3523"/>
<stop offset="0.3922" stop-color="#F15621"/>
<stop offset="0.4267" stop-color="#F26E20"/>
<stop offset="0.4587" stop-color="#F47C1F"/>
<stop offset="0.4857" stop-color="#F4811F"/>
<stop offset="1" stop-color="#FFCA05"/>
</linearGradient>
</defs>
</svg>
