<svg width="16" height="17" viewBox="0 0 16 17" fill="none" xmlns="http://www.w3.org/2000/svg">
<path d="M8.00002 2.1C5.34905 2.1 3.20002 4.24903 3.20002 6.9V9.76863L2.63433 10.3343C2.40553 10.5631 2.33709 10.9072 2.46091 11.2061C2.58474 11.5051 2.87645 11.7 3.20002 11.7H12.8C13.1236 11.7 13.4153 11.5051 13.5391 11.2061C13.6629 10.9072 13.5945 10.5631 13.3657 10.3343L12.8 9.76863V6.9C12.8 4.24903 10.651 2.1 8.00002 2.1Z" fill="white"/>
<path d="M7.99999 14.9C6.67451 14.9 5.59999 13.8255 5.59999 12.5H10.4C10.4 13.8255 9.32548 14.9 7.99999 14.9Z" fill="white"/>
</svg>
