<svg width="16" height="17" viewBox="0 0 16 17" fill="none" xmlns="http://www.w3.org/2000/svg">
<path d="M8.00003 2.1C5.34906 2.1 3.20002 4.24903 3.20002 6.9V9.76863L2.63434 10.3343C2.40554 10.5631 2.3371 10.9072 2.46092 11.2061C2.58475 11.5051 2.87646 11.7 3.20002 11.7H12.8C13.1236 11.7 13.4153 11.5051 13.5391 11.2061C13.663 10.9072 13.5945 10.5631 13.3657 10.3343L12.8 9.76863V6.9C12.8 4.24903 10.651 2.1 8.00003 2.1Z" fill="white"/>
<path d="M8 14.9C6.67452 14.9 5.6 13.8255 5.6 12.5H10.4C10.4 13.8255 9.32549 14.9 8 14.9Z" fill="white"/>
</svg>
