<svg width="82" height="11" viewBox="0 0 82 11" fill="none" xmlns="http://www.w3.org/2000/svg">
<path d="M0.313644 9.78041L1.03364 7.43199C2.01176 7.81429 2.99893 8.00544 3.99515 8.00544C4.83742 8.00544 5.25855 7.77788 5.25855 7.32276C5.25855 7.14981 5.13176 6.99962 4.87817 6.87219C4.62459 6.73565 4.31214 6.60822 3.94081 6.48989C3.57855 6.36246 3.21176 6.21682 2.84044 6.05297C2.47817 5.88913 2.17025 5.65247 1.91666 5.34299C1.66308 5.0244 1.53629 4.6421 1.53629 4.19609C1.53629 3.65904 1.64044 3.18572 1.84874 2.77611C2.0661 2.3574 2.3378 2.02972 2.66383 1.79305C2.98987 1.54729 3.3793 1.34704 3.83214 1.19229C4.29402 1.03755 4.7378 0.932877 5.16346 0.878262C5.58912 0.823648 6.03742 0.796341 6.50836 0.796341C7.87591 0.796341 8.95817 0.964735 9.75515 1.30152L9.03515 3.51341C8.73629 3.34956 8.34232 3.21758 7.85327 3.11745C7.37327 3.00822 6.92949 2.95361 6.52195 2.95361C5.61629 2.95361 5.16346 3.17207 5.16346 3.60898C5.16346 3.79103 5.29025 3.94122 5.54383 4.05955C5.80647 4.17788 6.12346 4.28711 6.49478 4.38724C6.8661 4.48736 7.23289 4.6148 7.59515 4.76954C7.96647 4.92428 8.27893 5.17459 8.53251 5.52048C8.79515 5.85727 8.92648 6.28053 8.92648 6.79027C8.92648 7.40013 8.7861 7.93262 8.50534 8.38774C8.22459 8.84286 7.83968 9.19785 7.35063 9.45272C6.87063 9.70759 6.34534 9.89874 5.77478 10.0262C5.20421 10.1445 4.58836 10.2037 3.92723 10.2037C2.54157 10.2037 1.33704 10.0626 0.313644 9.78041Z" fill="url(#paint0_linear_105_6)"/>
<path d="M14.8896 10.0535H11.4119L12.0096 7.26814L9.97188 0.94653H13.7485L14.4006 4.78319L16.6149 0.94653H20.2149L15.4873 7.26814L14.8896 10.0535Z" fill="url(#paint1_linear_105_6)"/>
<path d="M21.6958 10.0535H18.7478L20.6769 0.94653H25.7441L26.2195 7.55487L27.5509 0.94653H30.5259L28.5425 10.0535H23.5025L23.095 3.45879L21.6958 10.0535Z" fill="url(#paint2_linear_105_6)"/>
<path d="M37.9848 7.50025L37.6723 9.84867C36.9931 10.0853 36.1237 10.2037 35.064 10.2037C34.4754 10.2037 33.9184 10.1399 33.3931 10.0125C32.8769 9.87598 32.3923 9.67118 31.9395 9.3981C31.4957 9.11593 31.138 8.72908 30.8663 8.23755C30.6037 7.73692 30.4723 7.15436 30.4723 6.48989C30.4723 5.71619 30.5901 5.01075 30.8256 4.37358C31.061 3.73641 31.3735 3.19937 31.7629 2.76246C32.1614 2.32554 32.6278 1.96145 33.1622 1.67017C33.7056 1.36979 34.2716 1.15133 34.8603 1.0148C35.4489 0.878262 36.0603 0.809994 36.6942 0.809994C37.8716 0.809994 38.7727 0.960184 39.3976 1.26056L38.6776 3.64994C38.1705 3.32226 37.5773 3.15841 36.898 3.15841C36.101 3.15841 35.4354 3.41783 34.901 3.93667C34.3667 4.4555 34.0995 5.17004 34.0995 6.08028C34.0995 6.69014 34.2988 7.14071 34.6973 7.43199C35.0957 7.71416 35.612 7.85525 36.2459 7.85525C36.9161 7.85525 37.4957 7.73692 37.9848 7.50025Z" fill="url(#paint3_linear_105_6)"/>
<path d="M41.9794 10.0535H38.5017L40.4307 0.94653H43.9085L43.2428 4.08686H45.5658L46.2315 0.94653H49.7092L47.7802 10.0535H44.3024L44.9952 6.77661H42.6722L41.9794 10.0535Z" fill="url(#paint4_linear_105_6)"/>
<path d="M53.6904 4.91973H54.5327C55.6376 4.91973 56.1901 4.54198 56.1901 3.78648C56.1901 3.24944 55.7916 2.98092 54.9946 2.98092H54.098L53.6904 4.91973ZM49.221 10.0535L51.1501 0.94653H56.4889C56.8603 0.94653 57.2089 0.973838 57.535 1.02845C57.8701 1.08307 58.2097 1.18319 58.5538 1.32883C58.907 1.46537 59.1878 1.68382 59.3961 1.9842C59.6044 2.28458 59.7086 2.64868 59.7086 3.07649C59.7086 3.8866 59.4097 4.52377 58.8119 4.98799C58.2142 5.45222 57.535 5.72984 56.7742 5.82086C57.1636 5.89368 57.4535 6.06208 57.6436 6.32605C57.8338 6.58091 57.9969 6.98597 58.1327 7.54122L58.7169 10.0535H55.1033L54.7772 8.07371C54.7048 7.62769 54.6052 7.33186 54.4784 7.18622C54.3606 7.04058 54.1433 6.96776 53.8263 6.96776H53.3236L52.6716 10.0535H49.221Z" fill="url(#paint5_linear_105_6)"/>
<path d="M61.0929 9.28888C60.296 8.64261 59.8975 7.70961 59.8975 6.48989C59.8975 4.73313 60.4318 3.34956 61.5005 2.3392C62.5782 1.31973 64.0273 0.809994 65.8477 0.809994C66.3095 0.809994 66.7488 0.850955 67.1654 0.932877C67.591 1.0148 67.9941 1.15133 68.3744 1.34248C68.7548 1.52453 69.0854 1.75664 69.3661 2.03882C69.6469 2.31189 69.8688 2.65778 70.0318 3.07649C70.1948 3.4861 70.2763 3.94577 70.2763 4.4555C70.2763 6.30329 69.7556 7.72326 68.7141 8.71542C67.6726 9.70759 66.1873 10.2037 64.2582 10.2037C62.936 10.2037 61.8809 9.89874 61.0929 9.28888ZM63.7556 7.55487C63.9367 7.86435 64.231 8.01909 64.6386 8.01909C64.9918 8.01909 65.3043 7.89166 65.576 7.63679C65.8477 7.38192 66.056 7.06334 66.2009 6.68104C66.3548 6.28964 66.468 5.90278 66.5405 5.52048C66.6129 5.12908 66.6492 4.76498 66.6492 4.4282C66.6492 3.47244 66.2688 2.99457 65.508 2.99457C65.1729 2.99457 64.8695 3.122 64.5978 3.37687C64.3352 3.62263 64.1269 3.93667 63.9729 4.31897C63.828 4.70127 63.7148 5.08357 63.6333 5.46587C63.5609 5.84817 63.5246 6.19861 63.5246 6.5172C63.5246 6.93591 63.6016 7.2818 63.7556 7.55487Z" fill="url(#paint6_linear_105_6)"/>
<path d="M73.1698 10.0535H70.2219L72.1509 0.94653H77.2181L77.6936 7.55487L79.0249 0.94653H82L80.0166 10.0535H74.9766L74.5691 3.45879L73.1698 10.0535Z" fill="url(#paint7_linear_105_6)"/>
<defs>
<linearGradient id="paint0_linear_105_6" x1="0.858862" y1="5.36012" x2="81.9422" y2="5.36012" gradientUnits="userSpaceOnUse">
<stop offset="0.0238" stop-color="#860102"/>
<stop offset="0.1164" stop-color="#8A0203"/>
<stop offset="0.2007" stop-color="#950507"/>
<stop offset="0.2818" stop-color="#A70A0D"/>
<stop offset="0.3609" stop-color="#C11116"/>
<stop offset="0.4378" stop-color="#E21921"/>
<stop offset="0.4571" stop-color="#EC1C24"/>
<stop offset="0.5644" stop-color="#F16021"/>
<stop offset="0.6238" stop-color="#F4811F"/>
<stop offset="1" stop-color="#FFCA05"/>
</linearGradient>
<linearGradient id="paint1_linear_105_6" x1="0.858862" y1="5.36012" x2="81.9422" y2="5.36012" gradientUnits="userSpaceOnUse">
<stop offset="0.0238" stop-color="#860102"/>
<stop offset="0.1164" stop-color="#8A0203"/>
<stop offset="0.2007" stop-color="#950507"/>
<stop offset="0.2818" stop-color="#A70A0D"/>
<stop offset="0.3609" stop-color="#C11116"/>
<stop offset="0.4378" stop-color="#E21921"/>
<stop offset="0.4571" stop-color="#EC1C24"/>
<stop offset="0.5644" stop-color="#F16021"/>
<stop offset="0.6238" stop-color="#F4811F"/>
<stop offset="1" stop-color="#FFCA05"/>
</linearGradient>
<linearGradient id="paint2_linear_105_6" x1="0.858862" y1="5.36012" x2="81.9422" y2="5.36012" gradientUnits="userSpaceOnUse">
<stop offset="0.0238" stop-color="#860102"/>
<stop offset="0.1164" stop-color="#8A0203"/>
<stop offset="0.2007" stop-color="#950507"/>
<stop offset="0.2818" stop-color="#A70A0D"/>
<stop offset="0.3609" stop-color="#C11116"/>
<stop offset="0.4378" stop-color="#E21921"/>
<stop offset="0.4571" stop-color="#EC1C24"/>
<stop offset="0.5644" stop-color="#F16021"/>
<stop offset="0.6238" stop-color="#F4811F"/>
<stop offset="1" stop-color="#FFCA05"/>
</linearGradient>
<linearGradient id="paint3_linear_105_6" x1="0.858862" y1="5.36012" x2="81.9422" y2="5.36012" gradientUnits="userSpaceOnUse">
<stop offset="0.0238" stop-color="#860102"/>
<stop offset="0.1164" stop-color="#8A0203"/>
<stop offset="0.2007" stop-color="#950507"/>
<stop offset="0.2818" stop-color="#A70A0D"/>
<stop offset="0.3609" stop-color="#C11116"/>
<stop offset="0.4378" stop-color="#E21921"/>
<stop offset="0.4571" stop-color="#EC1C24"/>
<stop offset="0.5644" stop-color="#F16021"/>
<stop offset="0.6238" stop-color="#F4811F"/>
<stop offset="1" stop-color="#FFCA05"/>
</linearGradient>
<linearGradient id="paint4_linear_105_6" x1="0.858862" y1="5.36012" x2="81.9422" y2="5.36012" gradientUnits="userSpaceOnUse">
<stop offset="0.0238" stop-color="#860102"/>
<stop offset="0.1164" stop-color="#8A0203"/>
<stop offset="0.2007" stop-color="#950507"/>
<stop offset="0.2818" stop-color="#A70A0D"/>
<stop offset="0.3609" stop-color="#C11116"/>
<stop offset="0.4378" stop-color="#E21921"/>
<stop offset="0.4571" stop-color="#EC1C24"/>
<stop offset="0.5644" stop-color="#F16021"/>
<stop offset="0.6238" stop-color="#F4811F"/>
<stop offset="1" stop-color="#FFCA05"/>
</linearGradient>
<linearGradient id="paint5_linear_105_6" x1="0.858862" y1="5.36012" x2="81.9422" y2="5.36012" gradientUnits="userSpaceOnUse">
<stop offset="0.0238" stop-color="#860102"/>
<stop offset="0.1164" stop-color="#8A0203"/>
<stop offset="0.2007" stop-color="#950507"/>
<stop offset="0.2818" stop-color="#A70A0D"/>
<stop offset="0.3609" stop-color="#C11116"/>
<stop offset="0.4378" stop-color="#E21921"/>
<stop offset="0.4571" stop-color="#EC1C24"/>
<stop offset="0.5644" stop-color="#F16021"/>
<stop offset="0.6238" stop-color="#F4811F"/>
<stop offset="1" stop-color="#FFCA05"/>
</linearGradient>
<linearGradient id="paint6_linear_105_6" x1="0.858862" y1="5.36012" x2="81.9422" y2="5.36012" gradientUnits="userSpaceOnUse">
<stop offset="0.0238" stop-color="#860102"/>
<stop offset="0.1164" stop-color="#8A0203"/>
<stop offset="0.2007" stop-color="#950507"/>
<stop offset="0.2818" stop-color="#A70A0D"/>
<stop offset="0.3609" stop-color="#C11116"/>
<stop offset="0.4378" stop-color="#E21921"/>
<stop offset="0.4571" stop-color="#EC1C24"/>
<stop offset="0.5644" stop-color="#F16021"/>
<stop offset="0.6238" stop-color="#F4811F"/>
<stop offset="1" stop-color="#FFCA05"/>
</linearGradient>
<linearGradient id="paint7_linear_105_6" x1="0.858862" y1="5.36012" x2="81.9422" y2="5.36012" gradientUnits="userSpaceOnUse">
<stop offset="0.0238" stop-color="#860102"/>
<stop offset="0.1164" stop-color="#8A0203"/>
<stop offset="0.2007" stop-color="#950507"/>
<stop offset="0.2818" stop-color="#A70A0D"/>
<stop offset="0.3609" stop-color="#C11116"/>
<stop offset="0.4378" stop-color="#E21921"/>
<stop offset="0.4571" stop-color="#EC1C24"/>
<stop offset="0.5644" stop-color="#F16021"/>
<stop offset="0.6238" stop-color="#F4811F"/>
<stop offset="1" stop-color="#FFCA05"/>
</linearGradient>
</defs>
</svg>
