<svg width="22" height="21" viewBox="0 0 22 21" fill="none" xmlns="http://www.w3.org/2000/svg">
<path d="M11 0C5.20156 0 0.5 4.82344 0.5 10.7672C0.5 15.525 3.50937 19.5562 7.68125 20.9812C7.73977 20.994 7.79949 21.0002 7.85938 21C8.24844 21 8.39844 20.7141 8.39844 20.4656C8.39844 20.2078 8.38906 19.5328 8.38437 18.6328C8.03705 18.7142 7.68173 18.7567 7.325 18.7594C5.30469 18.7594 4.84531 17.1891 4.84531 17.1891C4.36719 15.9469 3.67813 15.6141 3.67813 15.6141C2.76406 14.9719 3.67344 14.9531 3.74375 14.9531H3.74844C4.80313 15.0469 5.35625 16.0687 5.35625 16.0687C5.88125 16.9875 6.58437 17.2453 7.2125 17.2453C7.62783 17.237 8.03673 17.1412 8.4125 16.9641C8.50625 16.2703 8.77812 15.7969 9.07812 15.525C6.74844 15.2531 4.29688 14.3297 4.29688 10.2047C4.29688 9.02812 4.70469 8.06719 5.375 7.31719C5.26719 7.04531 4.90625 5.94844 5.47812 4.46719C5.55483 4.44883 5.63368 4.44095 5.7125 4.44375C6.09219 4.44375 6.95 4.58906 8.36563 5.57344C10.0857 5.09218 11.9049 5.09218 13.625 5.57344C15.0406 4.58906 15.8984 4.44375 16.2781 4.44375C16.357 4.44095 16.4358 4.44883 16.5125 4.46719C17.0844 5.94844 16.7234 7.04531 16.6156 7.31719C17.2859 8.07187 17.6937 9.03281 17.6937 10.2047C17.6937 14.3391 15.2375 15.2484 12.8984 15.5156C13.2734 15.8484 13.6109 16.5047 13.6109 17.5078C13.6109 18.9469 13.5969 20.1094 13.5969 20.4609C13.5969 20.7141 13.7422 21 14.1312 21C14.1942 21.0003 14.2571 20.994 14.3187 20.9812C18.4953 19.5562 21.5 15.5203 21.5 10.7672C21.5 4.82344 16.7984 0 11 0Z" fill="#7A7A7A"/>
</svg>
