<svg width="23" height="18" viewBox="0 0 23 18" fill="none" xmlns="http://www.w3.org/2000/svg">
<path d="M22.5 2.13282C21.656 2.49955 20.763 2.74116 19.8492 2.85001C20.8095 2.28769 21.5317 1.39434 21.8803 0.337508C20.9724 0.86841 19.9807 1.24092 18.9478 1.43907C18.5129 0.983225 17.9897 0.620588 17.4103 0.373201C16.8308 0.125814 16.2071 -0.00115656 15.577 7.93801e-06C13.0261 7.93801e-06 10.9617 2.03438 10.9617 4.5422C10.9599 4.89102 10.9999 5.23881 11.0808 5.57813C9.25157 5.49238 7.4604 5.02575 5.82187 4.2081C4.18333 3.39044 2.73351 2.23977 1.56516 0.829695C1.15527 1.52069 0.938499 2.30909 0.9375 3.11251C0.9375 4.68751 1.75922 6.0797 3 6.89532C2.26487 6.87787 1.54481 6.68331 0.900938 6.32813V6.38438C0.900938 8.58751 2.49469 10.4203 4.60406 10.8375C4.2074 10.9433 3.79864 10.9968 3.38812 10.9969C3.09683 10.9974 2.8062 10.9691 2.52047 10.9125C3.10687 12.7172 4.81359 14.0297 6.83531 14.0672C5.19252 15.3333 3.1756 16.0175 1.10156 16.0125C0.733415 16.012 0.365609 15.99 0 15.9469C2.10993 17.2942 4.56255 18.0068 7.06594 18C15.5672 18 20.2116 11.0766 20.2116 5.07188C20.2116 4.87501 20.2064 4.67813 20.197 4.48595C21.0985 3.84472 21.8783 3.04787 22.5 2.13282V2.13282Z" fill="#7A7A7A"/>
</svg>
