<svg width="22" height="22" viewBox="0 0 22 22" fill="none" xmlns="http://www.w3.org/2000/svg">
<path d="M11 0.0597534C5.20159 0.0597534 0.500031 4.88319 0.500031 10.8269C0.500031 15.5848 3.50941 19.616 7.68128 21.041C7.7398 21.0537 7.79953 21.06 7.85941 21.0598C8.24847 21.0598 8.39847 20.7738 8.39847 20.5254C8.39847 20.2676 8.38909 19.5926 8.38441 18.6926C8.03708 18.774 7.68176 18.8164 7.32503 18.8191C5.30472 18.8191 4.84534 17.2488 4.84534 17.2488C4.36722 16.0066 3.67816 15.6738 3.67816 15.6738C2.76409 15.0316 3.67347 15.0129 3.74378 15.0129H3.74847C4.80316 15.1066 5.35628 16.1285 5.35628 16.1285C5.88128 17.0473 6.58441 17.3051 7.21253 17.3051C7.62786 17.2968 8.03676 17.2009 8.41253 17.0238C8.50628 16.3301 8.77816 15.8566 9.07816 15.5848C6.74847 15.3129 4.29691 14.3894 4.29691 10.2644C4.29691 9.08788 4.70472 8.12694 5.37503 7.37694C5.26722 7.10507 4.90628 6.00819 5.47816 4.52694C5.55486 4.50859 5.63371 4.5007 5.71253 4.5035C6.09222 4.5035 6.95003 4.64882 8.36566 5.63319C10.0858 5.15193 11.9049 5.15193 13.625 5.63319C15.0407 4.64882 15.8985 4.5035 16.2782 4.5035C16.357 4.5007 16.4358 4.50859 16.5125 4.52694C17.0844 6.00819 16.7235 7.10507 16.6157 7.37694C17.286 8.13163 17.6938 9.09257 17.6938 10.2644C17.6938 14.3988 15.2375 15.3082 12.8985 15.5754C13.2735 15.9082 13.611 16.5644 13.611 17.5676C13.611 19.0066 13.5969 20.1691 13.5969 20.5207C13.5969 20.7738 13.7422 21.0598 14.1313 21.0598C14.1943 21.06 14.2571 21.0537 14.3188 21.041C18.4953 19.616 21.5 15.5801 21.5 10.8269C21.5 4.88319 16.7985 0.0597534 11 0.0597534Z" fill="#7A7A7A"/>
</svg>
