<svg width="22" height="21" viewBox="0 0 22 21" fill="none" xmlns="http://www.w3.org/2000/svg">
<path d="M19.8205 0H2.29437C1.33672 0 0.5 0.689062 0.5 1.63547V19.2005C0.5 20.152 1.33672 21 2.29437 21H19.8153C20.7781 21 21.5 20.1464 21.5 19.2005V1.63547C21.5056 0.689062 20.7781 0 19.8205 0ZM7.00953 17.5045H4.00109V8.15063H7.00953V17.5045ZM5.60938 6.72844H5.58781C4.625 6.72844 4.00156 6.01172 4.00156 5.11453C4.00156 4.20094 4.64141 3.50109 5.62578 3.50109C6.61016 3.50109 7.2125 4.19578 7.23406 5.11453C7.23359 6.01172 6.61016 6.72844 5.60938 6.72844ZM18.0045 17.5045H14.9961V12.39C14.9961 11.1647 14.5583 10.3275 13.4698 10.3275C12.6383 10.3275 12.1461 10.89 11.9272 11.438C11.8452 11.6348 11.8231 11.903 11.8231 12.1767V17.5045H8.81469V8.15063H11.8231V9.45234C12.2609 8.82891 12.9448 7.93172 14.5363 7.93172C16.5111 7.93172 18.005 9.23344 18.005 12.0398L18.0045 17.5045Z" fill="#7A7A7A"/>
</svg>
