<svg width="22" height="22" viewBox="0 0 22 22" fill="none" xmlns="http://www.w3.org/2000/svg">
<path d="M19.8205 0.0597572H2.29437C1.33672 0.0597572 0.5 0.74882 0.5 1.69523V19.2602C0.5 20.2118 1.33672 21.0598 2.29437 21.0598H19.8153C20.7781 21.0598 21.5 20.2062 21.5 19.2602V1.69523C21.5056 0.74882 20.7781 0.0597572 19.8205 0.0597572ZM7.00953 17.5643H4.00109V8.21038H7.00953V17.5643ZM5.60938 6.78819H5.58781C4.625 6.78819 4.00156 6.07148 4.00156 5.17429C4.00156 4.26069 4.64141 3.56085 5.62578 3.56085C6.61016 3.56085 7.2125 4.25554 7.23406 5.17429C7.23359 6.07148 6.61016 6.78819 5.60938 6.78819ZM18.0045 17.5643H14.9961V12.4498C14.9961 11.2244 14.5583 10.3873 13.4698 10.3873C12.6383 10.3873 12.1461 10.9498 11.9272 11.4977C11.8452 11.6946 11.8231 11.9627 11.8231 12.2365V17.5643H8.81469V8.21038H11.8231V9.5121C12.2609 8.88866 12.9448 7.99148 14.5363 7.99148C16.5111 7.99148 18.005 9.29319 18.005 12.0996L18.0045 17.5643Z" fill="#7A7A7A"/>
</svg>
