<svg width="22" height="22" viewBox="0 0 22 22" fill="none" xmlns="http://www.w3.org/2000/svg">
<path d="M11 0.0597534C5.20156 0.0597534 0.5 4.88319 0.5 10.8269C0.5 15.5848 3.50937 19.616 7.68125 21.041C7.73977 21.0537 7.79949 21.06 7.85938 21.0598C8.24844 21.0598 8.39844 20.7738 8.39844 20.5254C8.39844 20.2676 8.38906 19.5926 8.38437 18.6926C8.03705 18.774 7.68173 18.8164 7.325 18.8191C5.30469 18.8191 4.84531 17.2488 4.84531 17.2488C4.36719 16.0066 3.67813 15.6738 3.67813 15.6738C2.76406 15.0316 3.67344 15.0129 3.74375 15.0129H3.74844C4.80313 15.1066 5.35625 16.1285 5.35625 16.1285C5.88125 17.0473 6.58437 17.3051 7.2125 17.3051C7.62783 17.2968 8.03673 17.2009 8.4125 17.0238C8.50625 16.3301 8.77812 15.8566 9.07812 15.5848C6.74844 15.3129 4.29688 14.3894 4.29688 10.2644C4.29688 9.08788 4.70469 8.12694 5.375 7.37694C5.26719 7.10507 4.90625 6.00819 5.47812 4.52694C5.55483 4.50859 5.63368 4.5007 5.7125 4.5035C6.09219 4.5035 6.95 4.64882 8.36563 5.63319C10.0857 5.15193 11.9049 5.15193 13.625 5.63319C15.0406 4.64882 15.8984 4.5035 16.2781 4.5035C16.357 4.5007 16.4358 4.50859 16.5125 4.52694C17.0844 6.00819 16.7234 7.10507 16.6156 7.37694C17.2859 8.13163 17.6937 9.09257 17.6937 10.2644C17.6937 14.3988 15.2375 15.3082 12.8984 15.5754C13.2734 15.9082 13.6109 16.5644 13.6109 17.5676C13.6109 19.0066 13.5969 20.1691 13.5969 20.5207C13.5969 20.7738 13.7422 21.0598 14.1312 21.0598C14.1942 21.06 14.2571 21.0537 14.3187 21.041C18.4953 19.616 21.5 15.5801 21.5 10.8269C21.5 4.88319 16.7984 0.0597534 11 0.0597534Z" fill="#7A7A7A"/>
</svg>
