<svg width="22" height="22" viewBox="0 0 22 22" fill="none" xmlns="http://www.w3.org/2000/svg">
<path d="M15.3748 1.8096C16.5342 1.81306 17.6451 2.27514 18.4648 3.09492C19.2846 3.9147 19.7467 5.02557 19.7502 6.18491V14.9346C19.7467 16.0939 19.2846 17.2048 18.4648 18.0246C17.6451 18.8444 16.5342 19.3064 15.3748 19.3099H6.62516C5.46582 19.3064 4.35495 18.8444 3.53517 18.0246C2.71539 17.2048 2.25331 16.0939 2.24984 14.9346V6.18491C2.25331 5.02557 2.71539 3.9147 3.53517 3.09492C4.35495 2.27514 5.46582 1.81306 6.62516 1.8096H15.3748ZM15.3748 0.0597534H6.62516C3.25625 0.0597534 0.5 2.816 0.5 6.18491V14.9346C0.5 18.3035 3.25625 21.0598 6.62516 21.0598H15.3748C18.7437 21.0598 21.5 18.3035 21.5 14.9346V6.18491C21.5 2.816 18.7437 0.0597534 15.3748 0.0597534Z" fill="#7A7A7A"/>
<path d="M16.6873 6.18491C16.4278 6.18491 16.174 6.10793 15.9582 5.96371C15.7423 5.81949 15.5741 5.61451 15.4748 5.37468C15.3754 5.13485 15.3494 4.87095 15.4001 4.61635C15.4507 4.36175 15.5757 4.12789 15.7593 3.94433C15.9428 3.76078 16.1767 3.63577 16.4313 3.58513C16.6859 3.53449 16.9498 3.56048 17.1896 3.65982C17.4294 3.75916 17.6344 3.92738 17.7786 4.14322C17.9229 4.35906 17.9998 4.61282 17.9998 4.87241C18.0002 5.04487 17.9665 5.21571 17.9007 5.37512C17.8349 5.53453 17.7382 5.67936 17.6162 5.80131C17.4943 5.92327 17.3495 6.01993 17.1901 6.08576C17.0306 6.15158 16.8598 6.18528 16.6873 6.18491Z" fill="#7A7A7A"/>
<path d="M11 7.0596C11.6923 7.0596 12.369 7.26488 12.9446 7.64948C13.5202 8.03408 13.9688 8.58073 14.2337 9.2203C14.4986 9.85987 14.568 10.5636 14.4329 11.2426C14.2978 11.9216 13.9645 12.5452 13.475 13.0347C12.9855 13.5242 12.3618 13.8576 11.6828 13.9927C11.0039 14.1277 10.3001 14.0584 9.66055 13.7935C9.02098 13.5286 8.47433 13.0799 8.08973 12.5043C7.70512 11.9287 7.49984 11.252 7.49984 10.5598C7.50084 9.63176 7.86992 8.74206 8.52611 8.08587C9.1823 7.42967 10.072 7.06059 11 7.0596ZM11 5.30975C9.96165 5.30975 8.94661 5.61766 8.08326 6.19454C7.2199 6.77141 6.54699 7.59135 6.14963 8.55067C5.75227 9.50998 5.64831 10.5656 5.85088 11.584C6.05345 12.6024 6.55346 13.5378 7.28769 14.2721C8.02192 15.0063 8.95738 15.5063 9.97578 15.7089C10.9942 15.9114 12.0498 15.8075 13.0091 15.4101C13.9684 15.0128 14.7883 14.3399 15.3652 13.4765C15.9421 12.6131 16.25 11.5981 16.25 10.5598C16.25 9.16737 15.6969 7.83201 14.7123 6.84744C13.7277 5.86288 12.3924 5.30975 11 5.30975Z" fill="#7A7A7A"/>
</svg>
