<svg width="23" height="19" viewBox="0 0 23 19" fill="none" xmlns="http://www.w3.org/2000/svg">
<path d="M22.5 2.69257C21.656 3.0593 20.763 3.30091 19.8492 3.40976C20.8095 2.84744 21.5317 1.95409 21.8803 0.897261C20.9724 1.42816 19.9807 1.80067 18.9478 1.99882C18.5129 1.54298 17.9897 1.18034 17.4103 0.932954C16.8308 0.685567 16.2071 0.558597 15.577 0.559761C13.0261 0.559761 10.9617 2.59414 10.9617 5.10195C10.9599 5.45078 10.9999 5.79856 11.0808 6.13789C9.25157 6.05213 7.4604 5.5855 5.82187 4.76785C4.18333 3.9502 2.73351 2.79952 1.56516 1.38945C1.15527 2.08044 0.938499 2.86884 0.9375 3.67226C0.9375 5.24726 1.75922 6.63945 3 7.45507C2.26487 7.43763 1.54481 7.24306 0.900938 6.88789V6.94414C0.900938 9.14726 2.49469 10.9801 4.60406 11.3973C4.2074 11.503 3.79864 11.5566 3.38812 11.5566C3.09683 11.5571 2.8062 11.5289 2.52047 11.4723C3.10687 13.2769 4.81359 14.5894 6.83531 14.6269C5.19252 15.893 3.1756 16.5773 1.10156 16.5723C0.733415 16.5717 0.365609 16.5498 0 16.5066C2.10993 17.8539 4.56255 18.5666 7.06594 18.5598C15.5672 18.5598 20.2116 11.6363 20.2116 5.63164C20.2116 5.43476 20.2064 5.23789 20.197 5.0457C21.0985 4.40448 21.8783 3.60763 22.5 2.69257V2.69257Z" fill="#7A7A7A"/>
</svg>
