<svg width="22" height="21" viewBox="0 0 22 21" fill="none" xmlns="http://www.w3.org/2000/svg">
<path d="M15.3748 1.74984C16.5342 1.75331 17.6451 2.21539 18.4648 3.03517C19.2846 3.85495 19.7467 4.96582 19.7502 6.12516V14.8748C19.7467 16.0342 19.2846 17.1451 18.4648 17.9648C17.6451 18.7846 16.5342 19.2467 15.3748 19.2502H6.62516C5.46582 19.2467 4.35495 18.7846 3.53517 17.9648C2.71539 17.1451 2.25331 16.0342 2.24984 14.8748V6.12516C2.25331 4.96582 2.71539 3.85495 3.53517 3.03517C4.35495 2.21539 5.46582 1.75331 6.62516 1.74984H15.3748ZM15.3748 0H6.62516C3.25625 0 0.5 2.75625 0.5 6.12516V14.8748C0.5 18.2437 3.25625 21 6.62516 21H15.3748C18.7437 21 21.5 18.2437 21.5 14.8748V6.12516C21.5 2.75625 18.7437 0 15.3748 0Z" fill="#7A7A7A"/>
<path d="M16.6873 6.12516C16.4278 6.12516 16.174 6.04818 15.9582 5.90396C15.7423 5.75974 15.5741 5.55476 15.4748 5.31493C15.3754 5.0751 15.3494 4.8112 15.4001 4.5566C15.4507 4.302 15.5757 4.06814 15.7593 3.88458C15.9428 3.70102 16.1767 3.57602 16.4313 3.52538C16.6859 3.47473 16.9498 3.50072 17.1896 3.60006C17.4294 3.6994 17.6344 3.86763 17.7786 4.08347C17.9229 4.29931 17.9998 4.55307 17.9998 4.81266C18.0002 4.98512 17.9665 5.15596 17.9007 5.31537C17.8349 5.47477 17.7382 5.61961 17.6162 5.74156C17.4943 5.86351 17.3495 5.96018 17.1901 6.026C17.0306 6.09183 16.8598 6.12553 16.6873 6.12516Z" fill="#7A7A7A"/>
<path d="M11 6.99984C11.6923 6.99984 12.369 7.20512 12.9446 7.58973C13.5202 7.97433 13.9688 8.52098 14.2337 9.16055C14.4986 9.80012 14.568 10.5039 14.4329 11.1828C14.2978 11.8618 13.9645 12.4855 13.475 12.975C12.9855 13.4645 12.3618 13.7978 11.6828 13.9329C11.0039 14.068 10.3001 13.9986 9.66055 13.7337C9.02098 13.4688 8.47433 13.0202 8.08973 12.4446C7.70512 11.869 7.49984 11.1923 7.49984 10.5C7.50084 9.57201 7.86992 8.6823 8.52611 8.02611C9.1823 7.36992 10.072 7.00084 11 6.99984ZM11 5.25C9.96165 5.25 8.94661 5.55791 8.08326 6.13478C7.2199 6.71166 6.54699 7.5316 6.14963 8.49091C5.75227 9.45022 5.64831 10.5058 5.85088 11.5242C6.05345 12.5426 6.55346 13.4781 7.28769 14.2123C8.02192 14.9465 8.95738 15.4466 9.97578 15.6491C10.9942 15.8517 12.0498 15.7477 13.0091 15.3504C13.9684 14.953 14.7883 14.2801 15.3652 13.4167C15.9421 12.5534 16.25 11.5384 16.25 10.5C16.25 9.10761 15.6969 7.77226 14.7123 6.78769C13.7277 5.80312 12.3924 5.25 11 5.25Z" fill="#7A7A7A"/>
</svg>
