<svg width="22" height="22" viewBox="0 0 22 22" fill="none" xmlns="http://www.w3.org/2000/svg">
<path d="M15.3749 1.8096C16.5342 1.81306 17.6451 2.27514 18.4649 3.09492C19.2846 3.91471 19.7467 5.02557 19.7502 6.18491V14.9346C19.7467 16.0939 19.2846 17.2048 18.4649 18.0246C17.6451 18.8444 16.5342 19.3065 15.3749 19.3099H6.62519C5.46585 19.3065 4.35498 18.8444 3.5352 18.0246C2.71542 17.2048 2.25334 16.0939 2.24987 14.9346V6.18491C2.25334 5.02557 2.71542 3.91471 3.5352 3.09492C4.35498 2.27514 5.46585 1.81306 6.62519 1.8096H15.3749ZM15.3749 0.0597572H6.62519C3.25628 0.0597572 0.500031 2.81601 0.500031 6.18491V14.9346C0.500031 18.3035 3.25628 21.0598 6.62519 21.0598H15.3749C18.7438 21.0598 21.5 18.3035 21.5 14.9346V6.18491C21.5 2.81601 18.7438 0.0597572 15.3749 0.0597572Z" fill="#7A7A7A"/>
<path d="M16.6874 6.18491C16.4278 6.18491 16.174 6.10794 15.9582 5.96372C15.7423 5.8195 15.5741 5.61451 15.4748 5.37469C15.3754 5.13486 15.3495 4.87096 15.4001 4.61636C15.4507 4.36176 15.5757 4.12789 15.7593 3.94434C15.9429 3.76078 16.1767 3.63578 16.4313 3.58513C16.6859 3.53449 16.9498 3.56048 17.1896 3.65982C17.4295 3.75916 17.6345 3.92739 17.7787 4.14323C17.9229 4.35907 17.9999 4.61283 17.9999 4.87241C18.0002 5.04488 17.9665 5.21572 17.9007 5.37512C17.8349 5.53453 17.7382 5.67937 17.6163 5.80132C17.4943 5.92327 17.3495 6.01993 17.1901 6.08576C17.0307 6.15159 16.8598 6.18528 16.6874 6.18491Z" fill="#7A7A7A"/>
<path d="M11 7.0596C11.6923 7.0596 12.369 7.26488 12.9446 7.64948C13.5202 8.03409 13.9688 8.58074 14.2338 9.22031C14.4987 9.85988 14.568 10.5636 14.4329 11.2426C14.2979 11.9216 13.9645 12.5452 13.475 13.0347C12.9855 13.5242 12.3618 13.8576 11.6829 13.9927C11.0039 14.1277 10.3001 14.0584 9.66058 13.7935C9.02101 13.5286 8.47436 13.0799 8.08976 12.5043C7.70516 11.9287 7.49987 11.252 7.49987 10.5598C7.50087 9.63176 7.86995 8.74206 8.52614 8.08587C9.18233 7.42968 10.072 7.06059 11 7.0596ZM11 5.30976C9.96168 5.30976 8.94665 5.61766 8.08329 6.19454C7.21993 6.77142 6.54702 7.59136 6.14966 8.55067C5.7523 9.50998 5.64834 10.5656 5.85091 11.584C6.05348 12.6024 6.55349 13.5378 7.28772 14.2721C8.02195 15.0063 8.95741 15.5063 9.97581 15.7089C10.9942 15.9115 12.0498 15.8075 13.0091 15.4101C13.9684 15.0128 14.7884 14.3399 15.3652 13.4765C15.9421 12.6131 16.25 11.5981 16.25 10.5598C16.25 9.16737 15.6969 7.83201 14.7123 6.84745C13.7278 5.86288 12.3924 5.30976 11 5.30976Z" fill="#7A7A7A"/>
</svg>
