<svg width="23" height="19" viewBox="0 0 23 19" fill="none" xmlns="http://www.w3.org/2000/svg">
<path d="M22.5 2.69255C21.656 3.05928 20.763 3.30089 19.8492 3.40974C20.8095 2.84742 21.5317 1.95407 21.8803 0.897238C20.9724 1.42814 19.9807 1.80065 18.9478 1.9988C18.5129 1.54296 17.9897 1.18032 17.4103 0.932931C16.8308 0.685544 16.2071 0.558574 15.577 0.559738C13.0261 0.559738 10.9617 2.59411 10.9617 5.10193C10.9599 5.45075 10.9999 5.79854 11.0808 6.13786C9.25157 6.05211 7.4604 5.58548 5.82187 4.76783C4.18333 3.95017 2.73351 2.7995 1.56516 1.38943C1.15527 2.08042 0.938499 2.86882 0.9375 3.67224C0.9375 5.24724 1.75922 6.63943 3 7.45505C2.26487 7.4376 1.54481 7.24304 0.900938 6.88786V6.94411C0.900938 9.14724 2.49469 10.9801 4.60406 11.3972C4.2074 11.503 3.79864 11.5566 3.38812 11.5566C3.09683 11.5571 2.8062 11.5289 2.52047 11.4722C3.10687 13.2769 4.81359 14.5894 6.83531 14.6269C5.19252 15.893 3.1756 16.5773 1.10156 16.5722C0.733415 16.5717 0.365609 16.5498 0 16.5066C2.10993 17.8539 4.56255 18.5666 7.06594 18.5597C15.5672 18.5597 20.2116 11.6363 20.2116 5.63161C20.2116 5.43474 20.2064 5.23786 20.197 5.04568C21.0985 4.40445 21.8783 3.6076 22.5 2.69255V2.69255Z" fill="#7A7A7A"/>
</svg>
